M48
; DRILL file {KiCad 8.0.7} date 2025-01-04T21:25:47+0300
; FORMAT={-:-/ absolute / metric / decimal}
; #@! TF.CreationDate,2025-01-04T21:25:47+03:00
; #@! TF.GenerationSoftware,Kicad,Pcbnew,8.0.7
; #@! TF.FileFunction,Plated,1,4,PTH
FMAT,2
METRIC
; #@! TA.AperFunction,Plated,PTH,ComponentDrill
T1C0.200
; #@! TA.AperFunction,Plated,PTH,ViaDrill
T2C0.250
; #@! TA.AperFunction,Plated,PTH,ViaDrill
T3C0.300
; #@! TA.AperFunction,Plated,PTH,ViaDrill
T4C0.350
; #@! TA.AperFunction,Plated,PTH,ComponentDrill
T5C0.600
; #@! TA.AperFunction,Plated,PTH,ComponentDrill
T6C1.020
; #@! TA.AperFunction,Plated,PTH,ComponentDrill
T7C1.100
; #@! TA.AperFunction,Plated,PTH,ComponentDrill
T8C1.300
; #@! TA.AperFunction,Plated,PTH,ComponentDrill
T9C1.400
; #@! TA.AperFunction,Plated,PTH,ComponentDrill
T10C3.200
%
G90
G05
T1
X169.35Y-65.1
X169.35Y-66.55
X169.35Y-68.0
X170.8Y-65.1
X170.8Y-66.55
X170.8Y-68.0
X172.25Y-65.1
X172.25Y-66.55
X172.25Y-68.0
T2
X171.156Y-68.7
T3
X117.0Y-52.4
X117.6Y-78.6
X118.23Y-71.77
X120.267Y-49.184
X121.35Y-49.184
X122.433Y-49.13
X130.4Y-84.0
X131.4Y-68.4
X131.4Y-75.4
X158.2Y-69.6
X158.4Y-46.8
X161.4Y-64.4
X161.5Y-65.2
X162.0Y-67.4
X162.029Y-65.8
X164.4Y-55.5
X165.3Y-55.5
X165.534Y-69.444
X166.2Y-69.0
X168.9Y-52.0
X169.0Y-51.2
X175.2Y-67.15
X175.8Y-65.275
X179.2Y-76.6
X179.7Y-70.3
X180.0Y-68.2
X180.4Y-71.0
X180.5Y-74.2
X181.4Y-68.0
X181.5Y-71.0
X181.574Y-74.226
X182.0Y-81.0
X197.2Y-68.8
X198.8Y-75.0
T4
X114.0Y-85.375
X114.045Y-86.545
X117.85Y-54.24
X118.4Y-89.175
X120.0Y-84.175
X129.2Y-86.975
X129.251Y-80.03
X131.451Y-78.03
X131.5Y-71.29
X133.3Y-44.533
X134.6Y-44.5
X135.9Y-44.517
X136.6Y-75.6
X137.2Y-44.567
X137.6Y-73.6
X138.5Y-44.55
X139.0Y-73.6
X139.8Y-44.6
X140.8Y-84.5
X141.0Y-72.4
X141.1Y-44.583
X142.4Y-72.3
X142.95Y-76.95
X143.05Y-74.4
X144.6Y-85.3
X146.1Y-67.0
X146.9Y-67.0
X147.6Y-69.2
X147.7Y-67.0
X147.8Y-41.7
X148.6Y-69.8
X148.6Y-73.55
X149.5Y-72.25
X150.15Y-73.5
X150.3Y-84.5
X150.5Y-44.8
X150.5Y-45.7
X150.5Y-46.5
X151.4Y-44.8
X151.4Y-45.7
X151.4Y-46.5
X151.691Y-72.25
X152.0Y-51.6
X152.3Y-44.8
X152.3Y-45.7
X152.4Y-46.5
X153.2Y-70.0
X153.6Y-46.2
X154.05Y-54.15
X155.0Y-44.9
X155.0Y-45.7
X155.9Y-44.9
X155.9Y-45.7
X156.8Y-43.5
X156.8Y-60.3
X157.2Y-82.4
X158.25Y-91.14
X158.4Y-51.8
X160.9Y-52.5
X162.88Y-63.15
X162.9Y-65.8
X162.9Y-68.95
X164.8Y-69.95
X164.855Y-62.489
X165.5Y-65.75
X166.0Y-41.8
X167.0Y-79.0
X167.4Y-73.8
X168.0Y-55.9
X168.2Y-68.0
X168.3Y-75.4
X168.4Y-64.0
X168.758Y-65.779
X169.0Y-46.0
X169.6Y-69.2
X169.9Y-38.6
X170.6Y-63.75
X171.3Y-72.6
X171.7Y-41.8
X171.7Y-64.4
X172.1Y-58.7
X172.2Y-80.2
X172.594Y-69.171
X172.818Y-66.218
X173.0Y-46.0
X173.0Y-89.356
X173.2Y-64.0
X173.4Y-67.6
X173.5Y-60.0
X173.51Y-61.83
X173.9Y-78.65
X174.05Y-75.85
X174.2Y-48.0
X174.2Y-48.8
X174.8Y-42.0
X174.9Y-72.15
X175.4Y-70.4
X176.0Y-57.4
X176.275Y-66.075
X176.3Y-61.1
X176.9Y-71.2
X177.0Y-68.2
X177.6Y-62.6
X178.3Y-71.5
X178.9Y-63.7
X179.0Y-65.9
X179.0Y-67.2
X179.5Y-52.1
X180.0Y-39.2
X184.6Y-51.4
X185.8Y-69.8
X189.4Y-71.55
X189.65Y-66.7
X190.9Y-45.8
X191.0Y-50.1
X191.1Y-59.8
X195.45Y-66.55
X196.55Y-66.6
X196.8Y-70.2
X196.8Y-73.68
X197.1Y-45.8
X200.38Y-85.505
X200.4Y-46.5
X202.0Y-58.6
X203.6Y-69.6
X206.1Y-50.9
X207.4Y-39.2
X207.4Y-45.4
X208.8Y-44.4
X211.18Y-77.605
X211.38Y-80.405
X211.7Y-58.5
X211.9Y-70.1
X212.2Y-43.6
T6
X188.53Y-78.45
X188.53Y-80.99
X188.53Y-83.53
X188.53Y-86.07
X188.53Y-88.61
X188.53Y-91.15
X191.07Y-78.45
X191.07Y-80.99
X191.07Y-83.53
X191.07Y-86.07
X191.07Y-88.61
X191.07Y-91.15
T7
X123.0Y-57.19
X123.0Y-64.81
X158.65Y-35.55
X158.65Y-42.05
X161.75Y-83.75
X161.75Y-90.25
X163.15Y-35.55
X163.15Y-42.05
X166.25Y-83.75
X166.25Y-90.25
X179.75Y-83.75
X179.75Y-90.25
X184.25Y-83.75
X184.25Y-90.25
T8
X139.6Y-91.0
X144.6Y-87.2
X149.6Y-91.0
T9
X110.9Y-39.095
X110.9Y-42.905
X110.9Y-50.095
X110.9Y-53.905
X110.9Y-61.095
X110.9Y-64.905
X110.9Y-72.095
X110.9Y-75.905
X110.9Y-83.095
X110.9Y-86.905
T10
X117.0Y-63.0
X212.0Y-37.0
X212.0Y-89.0
T5
G00X166.68Y-36.125
M15
G01X166.68Y-35.325
M16
G05
G00X166.68Y-40.455
M15
G01X166.68Y-39.355
M16
G05
G00X175.32Y-36.125
M15
G01X175.32Y-35.325
M16
G05
G00X175.32Y-40.455
M15
G01X175.32Y-39.355
M16
G05
M30
